<svg width="30" height="30" viewBox="0 0 30 30" fill="none" xmlns="http://www.w3.org/2000/svg">
<g id="ion:restaurant" clip-path="url(#clip0_10_206)">
<path id="Vector" d="M20.9514 13.1215C21.5674 13.1232 22.1775 13.0027 22.7466 12.7669C23.3157 12.5312 23.8323 12.1849 24.2666 11.7481L28.7783 7.23927C29.1352 6.88244 29.168 6.30177 28.8281 5.92736C28.7428 5.83329 28.6393 5.75754 28.5238 5.70469C28.4083 5.65185 28.2833 5.62302 28.1564 5.61995C28.0294 5.61689 27.9032 5.63964 27.7853 5.68684C27.6674 5.73405 27.5603 5.80471 27.4705 5.89454L23.4492 9.9129C23.3142 10.0478 23.1312 10.1235 22.9404 10.1235C22.7495 10.1235 22.5665 10.0478 22.4315 9.9129C22.1508 9.63283 22.166 9.15939 22.4461 8.87931L26.4498 4.8756C26.5396 4.78585 26.6102 4.67881 26.6573 4.56097C26.7044 4.44313 26.7272 4.31694 26.7241 4.19006C26.721 4.06317 26.6922 3.93823 26.6395 3.82281C26.5867 3.70738 26.511 3.60388 26.417 3.51857C26.2473 3.36468 26.0261 3.28 25.7971 3.28126C25.5375 3.28144 25.2886 3.38471 25.1051 3.56837L21.1049 7.56798C20.9699 7.70284 20.7868 7.77859 20.596 7.77859C20.4052 7.77859 20.2222 7.70284 20.0871 7.56798C19.8071 7.2879 19.8217 6.81447 20.1018 6.53439L24.1055 2.53185C24.1952 2.4421 24.2658 2.33506 24.313 2.21722C24.3601 2.09938 24.3828 1.97319 24.3798 1.84631C24.3767 1.71942 24.3479 1.59448 24.2951 1.47906C24.2423 1.36363 24.1667 1.26013 24.0727 1.17482C23.903 1.02093 23.6818 0.936253 23.4528 0.937514C23.1932 0.937821 22.9443 1.04107 22.7608 1.22462L18.252 5.73341C17.8151 6.16781 17.4688 6.68455 17.233 7.25372C16.9973 7.82289 16.8768 8.43317 16.8785 9.04923V9.53146C16.8786 9.65475 16.8544 9.77685 16.8073 9.89076C16.7601 10.0047 16.6909 10.1082 16.6037 10.1953L14.5172 12.2824C14.4954 12.3042 14.4696 12.3215 14.4411 12.3333C14.4127 12.3451 14.3822 12.3512 14.3514 12.3512C14.3206 12.3512 14.2901 12.3451 14.2616 12.3333C14.2332 12.3215 14.2073 12.3042 14.1856 12.2824L4.03244 2.12872C3.85721 1.95329 3.61961 1.85442 3.37164 1.85376C3.12368 1.85311 2.88556 1.95071 2.7094 2.12521C1.8217 3.0047 1.34768 4.2463 1.34768 5.71525C1.34182 8.14103 2.61682 10.9301 4.67522 12.9856L9.68205 17.9924C10.3937 18.7026 11.3579 19.1015 12.3633 19.1016C12.6838 19.1017 13.003 19.0607 13.3131 18.9797C13.391 18.9593 13.4711 18.9489 13.5516 18.9486C13.7869 18.9487 14.0136 19.0376 14.1862 19.1977L14.8535 19.8141C15.0257 19.9899 15.1224 20.226 15.1231 20.4721V20.7967C15.1214 21.5346 15.4114 22.2433 15.9299 22.7684L21.2063 28.1338L21.2115 28.1397C21.7972 28.7252 22.5914 29.0541 23.4196 29.0541C24.2477 29.054 25.0419 28.725 25.6275 28.1394C26.213 27.5537 26.5419 26.7595 26.5419 25.9313C26.5418 25.1032 26.2128 24.309 25.6272 23.7234L17.7182 15.8145C17.6964 15.7927 17.6791 15.7669 17.6673 15.7384C17.6555 15.7099 17.6494 15.6794 17.6494 15.6486C17.6494 15.6178 17.6555 15.5873 17.6673 15.5589C17.6791 15.5304 17.6964 15.5046 17.7182 15.4828L19.8047 13.3963C19.8918 13.3092 19.9952 13.24 20.109 13.1929C20.2228 13.1457 20.3448 13.1215 20.468 13.1215H20.9514Z" fill="#DC92FF"/>
<path id="Vector_2" d="M12.3633 20.9766C10.8624 20.9735 9.42313 20.3787 8.35786 19.3213L7.54575 18.5092C7.45788 18.4215 7.33882 18.3723 7.2147 18.3723C7.09057 18.3723 6.97152 18.4215 6.88364 18.5092L1.90317 23.4639C1.01548 24.3516 0.698486 25.6582 1.13794 26.9379C1.16253 27.01 1.19169 27.0805 1.22524 27.1489C1.81645 28.3594 2.96372 29.0625 4.2188 29.0625C4.65042 29.0636 5.07796 28.979 5.47666 28.8136C5.87535 28.6483 6.23727 28.4055 6.54145 28.0992L13.1836 21.4254C13.2116 21.3969 13.233 21.3626 13.2464 21.325C13.2597 21.2873 13.2647 21.2472 13.261 21.2074V21.1922C13.2584 21.1557 13.2484 21.12 13.2317 21.0875C13.2149 21.0549 13.1917 21.026 13.1635 21.0027C13.1353 20.9793 13.1027 20.9619 13.0676 20.9514C13.0325 20.941 12.9956 20.9378 12.9592 20.942C12.7613 20.964 12.5624 20.9755 12.3633 20.9766Z" fill="#DC92FF"/>
</g>
<defs>
<clipPath id="clip0_10_206">
<rect width="30" height="30" fill="white"/>
</clipPath>
</defs>
</svg>
