<svg width="30" height="30" viewBox="0 0 30 30" fill="none" xmlns="http://www.w3.org/2000/svg">
<g id="uiw:user" clip-path="url(#clip0_10_195)">
<path id="Vector" d="M14.9897 15.8595C15.8761 15.8595 16.7538 15.6849 17.5728 15.3457C18.3917 15.0065 19.1358 14.5093 19.7626 13.8825C20.3894 13.2557 20.8866 12.5116 21.2258 11.6926C21.5651 10.8737 21.7397 9.99592 21.7397 9.1095C21.7397 8.22308 21.5651 7.34534 21.2258 6.52639C20.8866 5.70744 20.3894 4.96333 19.7626 4.33653C19.1358 3.70973 18.3917 3.21253 17.5728 2.87331C16.7538 2.53409 15.8761 2.3595 14.9897 2.3595C13.1994 2.3595 11.4826 3.07066 10.2167 4.33653C8.95081 5.6024 8.23965 7.31929 8.23965 9.1095C8.23965 10.8997 8.95081 12.6166 10.2167 13.8825C11.4826 15.1483 13.1994 15.8595 14.9897 15.8595ZM15.0002 4.77821e-07C16.976 -0.000643128 18.8971 0.648913 20.4671 1.84845C22.0371 3.04798 23.1687 4.73083 23.6874 6.63734C24.2061 8.54385 24.083 10.5681 23.3371 12.3977C22.5912 14.2273 21.264 15.7606 19.5602 16.761C25.0922 18.426 29.2472 23.088 29.9927 28.878C30.0632 29.4285 29.6537 29.928 29.0777 29.9955C28.5032 30.063 27.9782 29.673 27.9077 29.1225C27.0977 22.8375 21.6542 18.105 15.0527 18.105C8.41515 18.105 2.90115 22.8465 2.09265 29.1225C2.02215 29.673 1.49715 30.063 0.922651 29.9955C0.346651 29.928 -0.0628493 29.4285 0.00765073 28.878C0.751651 23.112 4.92915 18.456 10.4702 16.776C8.76118 15.7801 7.42788 14.249 6.67641 12.4193C5.92493 10.5896 5.79714 8.56336 6.31278 6.65378C6.82842 4.74419 7.95878 3.05766 9.52908 1.85495C11.0994 0.652227 13.0222 0.000313893 15.0002 4.77821e-07Z" fill="#68C9FF"/>
</g>
<defs>
<clipPath id="clip0_10_195">
<rect width="30" height="30" fill="white"/>
</clipPath>
</defs>
</svg>
