<svg width="17" height="17" viewBox="0 0 17 17" fill="none" xmlns="http://www.w3.org/2000/svg">
<g id="solar:lock-password-outline" clip-path="url(#clip0_5_18)">
<g id="Group">
<path id="Vector" d="M6.37492 11.3333C6.37492 11.5212 6.30029 11.7014 6.16745 11.8342C6.03461 11.967 5.85445 12.0417 5.66659 12.0417C5.47872 12.0417 5.29856 11.967 5.16572 11.8342C5.03288 11.7014 4.95825 11.5212 4.95825 11.3333C4.95825 11.1455 5.03288 10.9653 5.16572 10.8325C5.29856 10.6996 5.47872 10.625 5.66659 10.625C5.85445 10.625 6.03461 10.6996 6.16745 10.8325C6.30029 10.9653 6.37492 11.1455 6.37492 11.3333ZM9.20825 11.3333C9.20825 11.5212 9.13362 11.7014 9.00079 11.8342C8.86795 11.967 8.68778 12.0417 8.49992 12.0417C8.31206 12.0417 8.13189 11.967 7.99905 11.8342C7.86621 11.7014 7.79159 11.5212 7.79159 11.3333C7.79159 11.1455 7.86621 10.9653 7.99905 10.8325C8.13189 10.6996 8.31206 10.625 8.49992 10.625C8.68778 10.625 8.86795 10.6996 9.00079 10.8325C9.13362 10.9653 9.20825 11.1455 9.20825 11.3333ZM11.3333 12.0417C11.5211 12.0417 11.7013 11.967 11.8341 11.8342C11.967 11.7014 12.0416 11.5212 12.0416 11.3333C12.0416 11.1455 11.967 10.9653 11.8341 10.8325C11.7013 10.6996 11.5211 10.625 11.3333 10.625C11.1454 10.625 10.9652 10.6996 10.8324 10.8325C10.6995 10.9653 10.6249 11.1455 10.6249 11.3333C10.6249 11.5212 10.6995 11.7014 10.8324 11.8342C10.9652 11.967 11.1454 12.0417 11.3333 12.0417Z" fill="#CECECE"/>
<path id="Vector_2" fill-rule="evenodd" clip-rule="evenodd" d="M3.71871 5.66669V6.58965C3.55792 6.60098 3.40704 6.61515 3.26396 6.63498C2.62646 6.71998 2.08954 6.90415 1.66313 7.32985C1.23671 7.75627 1.05396 8.29319 0.968251 8.93069C0.885376 9.54481 0.885376 10.3261 0.885376 11.2944V11.3723C0.885376 12.3406 0.885376 13.1219 0.968251 13.736C1.05325 14.3735 1.23742 14.9104 1.66313 15.3369C2.08954 15.7633 2.62646 15.946 3.26396 16.0324C3.87808 16.1146 4.65938 16.1146 5.62767 16.1146H11.3723C12.3405 16.1146 13.1218 16.1146 13.736 16.0324C14.3735 15.946 14.9104 15.7633 15.3368 15.3369C15.7632 14.9104 15.946 14.3735 16.0324 13.736C16.1145 13.1219 16.1145 12.3406 16.1145 11.3723V11.2944C16.1145 10.3261 16.1145 9.54481 16.0324 8.93069C15.946 8.29319 15.7632 7.75627 15.3368 7.32985C14.9104 6.90344 14.3735 6.72069 13.736 6.63498C13.5849 6.61508 13.4332 6.59997 13.2812 6.58965V5.66669C13.2812 4.39862 12.7775 3.18249 11.8808 2.28583C10.9842 1.38917 9.76803 0.885437 8.49996 0.885437C7.23189 0.885437 6.01576 1.38917 5.11911 2.28583C4.22245 3.18249 3.71871 4.39862 3.71871 5.66669ZM8.49996 1.94794C7.51369 1.94794 6.56781 2.33973 5.87041 3.03713C5.17301 3.73453 4.78121 4.68041 4.78121 5.66669V6.55423C5.04542 6.5521 5.32804 6.5521 5.62767 6.5521H11.3723C11.6719 6.5521 11.9545 6.5521 12.2187 6.55423V5.66669C12.2187 3.61252 10.5541 1.94794 8.49996 1.94794ZM3.40563 7.68756C2.88571 7.75769 2.61088 7.8859 2.41467 8.0814C2.21846 8.2776 2.09096 8.55244 2.02083 9.07306C1.94929 9.60785 1.94788 10.3169 1.94788 11.3334C1.94788 12.3498 1.94929 13.0589 2.02083 13.5944C2.09096 14.1143 2.21917 14.3891 2.41467 14.5853C2.61088 14.7815 2.88571 14.909 3.40633 14.9791C3.94042 15.0507 4.65017 15.0521 5.66663 15.0521H11.3333C12.3498 15.0521 13.0588 15.0507 13.5943 14.9791C14.1142 14.909 14.389 14.7808 14.5853 14.5853C14.7815 14.3891 14.909 14.1143 14.9791 13.5936C15.0506 13.0589 15.052 12.3498 15.052 11.3334C15.052 10.3169 15.0506 9.60715 14.9791 9.07235C14.909 8.55244 14.7808 8.2776 14.5853 8.0814C14.389 7.88519 14.1142 7.75769 13.5936 7.68756C13.0588 7.61602 12.3498 7.6146 11.3333 7.6146H5.66663C4.65017 7.6146 3.94042 7.61602 3.40563 7.68756Z" fill="#CECECE"/>
</g>
</g>
<defs>
<clipPath id="clip0_5_18">
<rect width="17" height="17" fill="white"/>
</clipPath>
</defs>
</svg>
