<svg width="10" height="15" viewBox="0 0 10 15" fill="none" xmlns="http://www.w3.org/2000/svg">
<path id="Vector" d="M1.67293 0.310824L2.43581 0.0671569C3.14981 -0.160926 3.91339 0.208115 4.21939 0.929199L4.82856 2.3657C5.09418 2.99116 4.94685 3.72712 4.46448 4.1847L3.1236 5.45828C3.20647 6.22045 3.46218 6.97057 3.89143 7.70866C4.29931 8.42278 4.84631 9.04782 5.50006 9.54678L7.11223 9.00845C7.72281 8.80516 8.38793 9.03961 8.76264 9.58999L9.63531 10.8721C10.0716 11.5124 9.99302 12.395 9.45256 12.9376L8.87314 13.5191C8.29656 14.0978 7.47347 14.3082 6.71131 14.0702C4.91285 13.5092 3.2596 11.8439 1.75085 9.07432C0.239975 6.30049 -0.292691 3.94599 0.151434 2.01366C0.338434 1.20049 0.91785 0.552365 1.67435 0.310824H1.67293Z" fill="#646464"/>
</svg>
