<svg width="30" height="30" viewBox="0 0 30 30" fill="none" xmlns="http://www.w3.org/2000/svg">
<path id="Vector" d="M15 3.32317L3.32317 15L15 26.6768L26.6768 15L15 3.32317ZM15.973 0.402925L29.5971 14.027C29.8551 14.2851 30 14.6351 30 15C30 15.3649 29.8551 15.7149 29.5971 15.973L15.973 29.5971C15.7149 29.8551 15.3649 30 15 30C14.6351 30 14.2851 29.8551 14.027 29.5971L0.402925 15.973C0.144932 15.7149 0 15.3649 0 15C0 14.6351 0.144932 14.2851 0.402925 14.027L14.027 0.402925C14.2851 0.144932 14.6351 0 15 0C15.3649 0 15.7149 0.144932 15.973 0.402925ZM16.3762 12.2477V8.80722L21.1928 13.6238L16.3762 18.4404V15H12.2477V19.1285H9.49531V13.6238C9.49531 13.2588 9.6403 12.9088 9.89838 12.6507C10.1565 12.3926 10.5065 12.2477 10.8715 12.2477H16.3762Z" fill="#4DFF9C"/>
</svg>
