<svg width="21" height="21" viewBox="0 0 21 21" fill="none" xmlns="http://www.w3.org/2000/svg">
<g id="prime:sign-in">
<path id="Vector" d="M15.75 18.1563H13.125C12.951 18.1563 12.784 18.0871 12.661 17.964C12.5379 17.841 12.4688 17.6741 12.4688 17.5C12.4688 17.326 12.5379 17.159 12.661 17.036C12.784 16.9129 12.951 16.8438 13.125 16.8438H15.75C16.0098 16.8663 16.2683 16.7881 16.472 16.6252C16.6756 16.4622 16.8088 16.2272 16.8438 15.9688V5.05751C16.8088 4.79907 16.6756 4.56402 16.472 4.40111C16.2683 4.23819 16.0098 4.15992 15.75 4.18251H13.125C12.951 4.18251 12.784 4.11337 12.661 3.9903C12.5379 3.86722 12.4688 3.70031 12.4688 3.52626C12.4688 3.35221 12.5379 3.18529 12.661 3.06222C12.784 2.93915 12.951 2.87001 13.125 2.87001H15.75C16.0534 2.8571 16.3564 2.90415 16.6416 3.00846C16.9268 3.11278 17.1887 3.2723 17.4122 3.47792C17.6357 3.68354 17.8164 3.9312 17.9441 4.20675C18.0718 4.4823 18.1439 4.78032 18.1562 5.08376V15.9425C18.1439 16.2459 18.0718 16.544 17.9441 16.8195C17.8164 17.0951 17.6357 17.3427 17.4122 17.5483C17.1887 17.754 16.9268 17.9135 16.6416 18.0178C16.3564 18.1221 16.0534 18.1692 15.75 18.1563Z" fill="#00D05D"/>
<path id="Vector_2" d="M9.62503 14.6562C9.53881 14.6566 9.45337 14.6398 9.37374 14.6068C9.2941 14.5737 9.22187 14.5251 9.16128 14.4637C9.03839 14.3407 8.96936 14.1739 8.96936 14C8.96936 13.8261 9.03839 13.6593 9.16128 13.5362L12.1975 10.5L9.16128 7.46374C9.04536 7.33933 8.98225 7.17479 8.98525 7.00478C8.98825 6.83477 9.05713 6.67255 9.17736 6.55232C9.2976 6.43208 9.45981 6.36321 9.62983 6.36021C9.79984 6.35721 9.96438 6.42032 10.0888 6.53624L13.5888 10.0362C13.7117 10.1593 13.7807 10.3261 13.7807 10.5C13.7807 10.6739 13.7117 10.8407 13.5888 10.9637L10.0888 14.4637C10.0282 14.5251 9.95596 14.5737 9.87633 14.6068C9.79669 14.6398 9.71126 14.6566 9.62503 14.6562Z" fill="#00D05D"/>
<path id="Vector_3" d="M13.125 11.1562H3.5C3.32595 11.1562 3.15903 11.0871 3.03596 10.964C2.91289 10.841 2.84375 10.674 2.84375 10.5C2.84375 10.326 2.91289 10.159 3.03596 10.036C3.15903 9.91289 3.32595 9.84375 3.5 9.84375H13.125C13.299 9.84375 13.466 9.91289 13.589 10.036C13.7121 10.159 13.7812 10.326 13.7812 10.5C13.7812 10.674 13.7121 10.841 13.589 10.964C13.466 11.0871 13.299 11.1562 13.125 11.1562Z" fill="#00D05D"/>
</g>
</svg>
